<svg xmlns="http://www.w3.org/2000/svg" xmlns:xlink="http://www.w3.org/1999/xlink" version="1.1" id="Capa_1" x="0px" y="0px" viewBox="0 0 150 150" style="enable-background:new 0 0 150 150;" xml:space="preserve">
<g>
	<path d="M85.831 34.958c-8.797 2.051-16.453 6.282-21.917 14.625c-1.33-2.794-2.312-5.158-3.542-7.385 c-4.152-7.524-12.089-9.956-19.741-6.026c-1.696 0.871-3.419 1.913-4.737 3.26c-4.761 4.865-10.416 8.207-16.389 11 c-0.111-0.004-0.23 0.013-0.358 0.062c-5.181 1.974-16.945 4.433-14.787 12.39c0.315 1.2 2.1 0.7 1.799-0.496 c-1.069-3.942 2.893-6.292 7.012-7.886c5.124-0.801 10.488-1.668 15.884-2.313c5.185-0.62 9.4 1.7 11.4 6.3 c7.457 17.1 19.3 30.7 32.5 43.538c4.346 7.5 6.6 16.1 6.5 24.897c-0.013 1.4 1.8 1.6 2.3 0.6 c0.188 0.7 0.4 1.4 0.6 2.159c0.364 1.4 2.3 1 2.434-0.207c0.25 0.5 0.5 1.1 0.7 1.6 c0.11 0.2 0.3 0.4 0.4 0.499c0.071 0.2 0.1 0.5 0.2 0.687c0.052 0.2 0.1 0.3 0.2 0.4 c0.272 0.6 1 1.1 1.8 0.695c0.236-0.114 0.447-0.252 0.645-0.401c0.325 1.3 0.6 2.5 1 3.8 c0.21 0.8 1 1 1.6 0.797c0.369 1.2 0.7 2.3 1.1 3.5c0.114 0.4 0.2 0.9 0.3 1.3 c0.047-0.008 0.093-0.016 0.14-0.024c0.025 0 0.1 0.1 0.1 0.088c0.006 0 0 0.1 0 0.1 c0.274 1.6 2.7 0.9 2.399-0.661c-0.882-5.073-2.138-10.055-3.737-14.915c-0.979-6.48-2.06-12.934-3.655-19.258 c-2.367-9.384-6.396-18.392-10.181-27.359c-2.391-5.666-2.682-6.802 1.702-9.707c0.729-0.079 1.454-0.182 2.178-0.299 c0.48-0.012 0.96-0.023 1.44-0.035c-0.057 0.038-0.112 0.076-0.17 0.115c1.855-0.05 3.69-0.13 5.506-0.244l0.365-0.009 c0.104-0.003 0.192-0.027 0.292-0.036c16.822-1.137 32.007-5.321 45.928-17.05c-2.507 0-3.639-0.049-4.766 0 c-6.981 0.352-13.962 0.697-20.938 1.122c-0.401 0.024-0.82 0.064-1.239 0.116h-3.972c9.632-7.028 18.717-14.749 26.777-23.758 c4.161-4.651 7.836-9.746 11.621-14.722c0.994-1.307 1.569-2.933 1.509-5.247c-1.34 0.631-2.798 1.091-4.002 1.9 C123.654 23.9 105.2 30.4 85.8 34.958z"/>
</g>
</svg>
